<?xml version="1.0" encoding="UTF-8" standalone="no"?>
<!DOCTYPE svg PUBLIC "-//W3C//DTD SVG 1.1//EN"
 "http://www.w3.org/Graphics/SVG/1.1/DTD/svg11.dtd">
<!-- Generated by graphviz version 2.40.1 (20161225.0304)
 -->
<!-- Title: ID3_Tree Pages: 1 -->
<svg width="352pt" height="233pt"
 viewBox="0.00 0.00 351.91 232.80" xmlns="http://www.w3.org/2000/svg" xmlns:xlink="http://www.w3.org/1999/xlink">
<g id="graph0" class="graph" transform="scale(1 1) rotate(0) translate(4 228.8)">
<title>ID3_Tree</title>
<polygon fill="#ffffff" stroke="transparent" points="-4,4 -4,-228.8 347.911,-228.8 347.911,4 -4,4"/>
<!-- 0 -->
<g id="node1" class="node">
<title>0</title>
<polygon fill="#d3d3d3" stroke="#000000" points="224.6043,-224.8 -.2017,-224.8 -.2017,-188.8 224.6043,-188.8 224.6043,-224.8"/>
<text text-anchor="middle" x="112.2013" y="-202.6" font-family="Times,serif" font-size="14.00" fill="#000000">system.cpu.rename.CommittedMaps&#13;</text>
</g>
<!-- 1 -->
<g id="node2" class="node">
<title>1</title>
<polygon fill="#d3d3d3" stroke="#000000" points="108.2013,-135.8019 54.2013,-135.8019 54.2013,-94.5981 108.2013,-94.5981 108.2013,-135.8019"/>
<text text-anchor="middle" x="81.2013" y="-119.4" font-family="Times,serif" font-size="14.00" fill="#000000">0&#13;</text>
<text text-anchor="middle" x="81.2013" y="-102.6" font-family="Times,serif" font-size="14.00" fill="#000000">(28)&#13;</text>
</g>
<!-- 0&#45;&gt;1 -->
<g id="edge1" class="edge">
<title>0&#45;&gt;1</title>
<path fill="none" stroke="#000000" d="M106.0767,-188.7028C101.8904,-176.3329 96.2425,-159.6443 91.3865,-145.2956"/>
<polygon fill="#000000" stroke="#000000" points="94.6999,-144.1677 88.1788,-135.8175 88.0693,-146.4118 94.6999,-144.1677"/>
<text text-anchor="middle" x="120.3459" y="-158.2" font-family="Times,serif" font-size="14.00" fill="#000000">&lt;=0.69</text>
</g>
<!-- 2 -->
<g id="node3" class="node">
<title>2</title>
<polygon fill="#d3d3d3" stroke="#000000" points="344.1211,-133.2 126.2815,-133.2 126.2815,-97.2 344.1211,-97.2 344.1211,-133.2"/>
<text text-anchor="middle" x="235.2013" y="-111" font-family="Times,serif" font-size="14.00" fill="#000000">system.cpu.commit.bw_lim_events&#13;</text>
</g>
<!-- 0&#45;&gt;2 -->
<g id="edge2" class="edge">
<title>0&#45;&gt;2</title>
<path fill="none" stroke="#000000" d="M136.5021,-188.7028C155.4545,-174.5887 181.9565,-154.8522 202.727,-139.3841"/>
<polygon fill="#000000" stroke="#000000" points="205.0211,-142.0396 210.9509,-133.2596 200.8401,-136.4254 205.0211,-142.0396"/>
<text text-anchor="middle" x="197.3986" y="-158.2" font-family="Times,serif" font-size="14.00" fill="#000000">&gt;0.69</text>
</g>
<!-- 3 -->
<g id="node4" class="node">
<title>3</title>
<polygon fill="#d3d3d3" stroke="#000000" points="226.2013,-41.4019 172.2013,-41.4019 172.2013,-.1981 226.2013,-.1981 226.2013,-41.4019"/>
<text text-anchor="middle" x="199.2013" y="-25" font-family="Times,serif" font-size="14.00" fill="#000000">1&#13;</text>
<text text-anchor="middle" x="199.2013" y="-8.2" font-family="Times,serif" font-size="14.00" fill="#000000">(10)&#13;</text>
</g>
<!-- 2&#45;&gt;3 -->
<g id="edge3" class="edge">
<title>2&#45;&gt;3</title>
<path fill="none" stroke="#000000" d="M220.6612,-97.163C216.2688,-90.9085 211.8399,-83.6418 208.9121,-76.4 205.7615,-68.6072 203.632,-59.7941 202.193,-51.5194"/>
<polygon fill="#000000" stroke="#000000" points="205.6293,-50.8294 200.7147,-41.4434 198.7035,-51.8455 205.6293,-50.8294"/>
<text text-anchor="middle" x="228.3459" y="-63.8" font-family="Times,serif" font-size="14.00" fill="#000000">&lt;=0.92</text>
</g>
<!-- 4 -->
<g id="node5" class="node">
<title>4</title>
<polygon fill="#d3d3d3" stroke="#000000" points="298.2013,-41.4019 244.2013,-41.4019 244.2013,-.1981 298.2013,-.1981 298.2013,-41.4019"/>
<text text-anchor="middle" x="271.2013" y="-25" font-family="Times,serif" font-size="14.00" fill="#000000">0&#13;</text>
<text text-anchor="middle" x="271.2013" y="-8.2" font-family="Times,serif" font-size="14.00" fill="#000000">(1)&#13;</text>
</g>
<!-- 2&#45;&gt;4 -->
<g id="edge4" class="edge">
<title>2&#45;&gt;4</title>
<path fill="none" stroke="#000000" d="M242.1425,-96.9987C247.1036,-83.9895 253.8947,-66.1818 259.6643,-51.0527"/>
<polygon fill="#000000" stroke="#000000" points="262.9856,-52.1657 263.2787,-41.5749 256.4451,-49.6714 262.9856,-52.1657"/>
<text text-anchor="middle" x="271.3986" y="-63.8" font-family="Times,serif" font-size="14.00" fill="#000000">&gt;0.92</text>
</g>
</g>
</svg>
